# Blender v2.93.3 OBJ File: 'thingie.blend'
# www.blender.org
mtllib thingie.mtl
o Cube_Cube.001
v -0.251578 0.451199 -3.370184
v 0.251578 0.451199 -3.370184
v -0.251578 -0.451199 -3.370184
v 0.251578 -0.451199 -3.370184
v -0.251578 0.451199 2.528103
v 0.251578 0.451199 2.528103
v -0.251578 -0.451199 2.528103
v 0.251578 -0.451199 2.528103
v -0.251578 0.585787 3.313575
v 0.251578 0.585787 3.313575
v -0.251578 -0.585786 3.313575
v 0.251578 -0.585786 3.313575
v -0.251578 0.787966 4.190992
v 0.251578 0.787966 4.190992
v -0.251578 -0.787965 4.190992
v 0.251577 -0.787965 4.190992
v -0.251578 1.403765 5.428001
v 0.251578 1.403765 5.428001
v -0.251578 -1.403764 5.428001
v 0.251577 -1.403764 5.428001
v 0.251578 2.461734 6.451981
v -0.251578 2.461734 6.451981
v -0.250564 -4.420577 10.979327
v 0.250562 -4.420577 10.979327
v -0.250564 -4.309744 12.208402
v 0.250562 -4.309744 12.208402
v -0.250564 -3.982802 13.375845
v 0.250562 -3.982802 13.375845
v -0.250564 -3.456146 14.423117
v 0.250562 -3.456146 14.423117
v -0.250564 -2.756184 15.297701
v 0.250562 -2.756184 15.297701
v -0.250564 -1.918016 15.955747
v 0.250562 -1.918016 15.955747
v -0.250564 -0.983670 16.364252
v 0.250562 -0.983670 16.364252
v -0.250564 0.000001 16.502735
v 0.250562 0.000001 16.502735
v -0.250564 0.983672 16.364252
v 0.250562 0.983672 16.364252
v -0.250564 1.918018 15.955747
v 0.250562 1.918018 15.955747
v -0.250564 2.756186 15.297701
v 0.250563 2.756186 15.297701
v -0.250564 3.456148 14.423117
v 0.250563 3.456148 14.423117
v -0.250564 3.982803 13.375845
v 0.250563 3.982803 13.375845
v -0.250564 4.309745 12.208402
v 0.250563 4.309745 12.208402
v -0.250563 4.420578 10.979327
v 0.250563 4.420578 10.979327
v -0.250563 4.309745 9.750253
v 0.250563 4.309745 9.750253
v -0.250563 3.982803 8.582808
v 0.250563 3.982803 8.582808
v -0.250563 3.456147 7.535537
v 0.250563 3.456147 7.535537
v -0.250563 2.756185 6.696099
v 0.250563 2.756185 6.696099
v -0.250564 -2.756184 6.696099
v 0.250563 -2.756184 6.696099
v -0.250564 -3.456146 7.535535
v 0.250563 -3.456146 7.535535
v -0.250564 -3.982802 8.582808
v 0.250563 -3.982802 8.582808
v -0.250564 -4.309744 9.750253
v 0.250562 -4.309744 9.750253
v -0.251578 -2.461733 6.451981
v 0.251577 -2.461733 6.451981
v 0.251578 0.000001 3.104061
v 0.251578 0.021542 3.313575
v 0.251578 -0.021541 3.313575
v -0.251578 -0.742698 5.410728
v 0.251577 -0.742698 5.410728
v -0.251578 0.021542 3.313575
v -0.251578 0.000001 3.104061
v -0.251578 -0.021541 3.313575
v -0.251578 -0.336689 4.709261
v 0.251577 -0.336689 4.709261
v -0.251578 0.169639 4.190992
v -0.251578 -0.169637 4.190992
v -0.251578 0.084644 3.927302
v -0.251578 -0.084643 3.927301
v 0.251578 -0.169637 4.190992
v 0.251578 -0.084643 3.927301
v 0.251578 0.169638 4.190992
v 0.251578 0.084644 3.927302
v -0.251578 0.336690 4.709261
v -0.251578 0.742699 5.410729
v 0.251578 0.336690 4.709261
v 0.251578 0.742699 5.410729
v 0.251577 0.020016 5.746096
v 0.251578 0.778347 5.838853
v 0.251577 1.297936 6.036227
v 0.251577 -0.738315 5.838853
v 0.251577 -1.381999 6.083368
v -0.251578 0.020016 5.746096
v -0.251578 -0.738315 5.838853
v -0.251578 -1.381999 6.083368
v -0.251578 0.778347 5.838853
v -0.251578 1.297936 6.036227
v 0.251578 0.451199 -3.370184
v 0.251578 -0.451199 -3.370184
v 0.251578 0.451199 2.528103
v 0.251578 -0.451199 2.528103
v 0.251578 0.585787 3.313575
v 0.251578 -0.585786 3.313575
v 0.251578 0.787966 4.190992
v 0.251577 -0.787965 4.190992
v 0.251578 1.403765 5.428001
v 0.251577 -1.403764 5.428001
v 0.251578 2.461734 6.451981
v 0.250562 -4.420577 10.979327
v 0.250562 -4.309744 12.208402
v 0.250562 -3.982802 13.375845
v 0.250562 -3.456146 14.423117
v 0.250562 -2.756184 15.297701
v 0.250562 -1.918016 15.955747
v 0.250562 -0.983670 16.364252
v 0.250562 0.000001 16.502735
v 0.250562 0.983672 16.364252
v 0.250562 1.918018 15.955747
v 0.250563 2.756186 15.297701
v 0.250563 3.456148 14.423117
v 0.250563 3.982803 13.375845
v 0.250563 4.309745 12.208402
v 0.250563 4.420578 10.979327
v 0.250563 4.309745 9.750253
v 0.250563 3.982803 8.582808
v 0.250563 3.456147 7.535537
v 0.250563 2.756185 6.696099
v 0.250563 -2.756184 6.696099
v 0.250563 -3.456146 7.535535
v 0.250563 -3.982802 8.582808
v 0.250562 -4.309744 9.750253
v 0.251577 -2.461733 6.451981
v 0.251578 0.000001 3.104061
v 0.251578 0.021542 3.313575
v 0.251578 -0.021541 3.313575
v 0.251577 -0.742698 5.410728
v 0.251577 -0.336689 4.709261
v 0.251578 -0.169637 4.190992
v 0.251578 -0.084643 3.927301
v 0.251578 0.169638 4.190992
v 0.251578 0.084644 3.927302
v 0.251578 0.336690 4.709261
v 0.251578 0.742699 5.410729
v 0.251577 0.020016 5.746096
v 0.251578 0.778347 5.838853
v 0.251577 1.297936 6.036227
v 0.251577 -0.738315 5.838853
v 0.251577 -1.381999 6.083368
vt 0.125000 0.500000
vt 0.125000 0.750000
vt 0.875000 0.750000
vt 0.875000 0.500000
vt 0.375000 0.250000
vt 0.625000 0.250000
vt 0.625000 0.500000
vt 0.375000 0.500000
vt 0.785714 1.000000
vt 0.821429 1.000000
vt 0.821429 1.000000
vt 0.785714 1.000000
vt 0.375000 0.750000
vt 0.625000 0.750000
vt 0.625000 1.000000
vt 0.375000 1.000000
vt 0.214286 0.688023
vt 0.250000 0.688023
vt 0.250000 0.688023
vt 0.214286 0.688023
vt 0.375000 0.500000
vt 0.625000 0.500000
vt 0.625000 0.500000
vt 0.375000 0.500000
vt 0.375000 0.750000
vt 0.625000 0.750000
vt 0.375000 0.620403
vt 0.375000 0.625000
vt 0.375000 0.629597
vt 0.625000 0.750000
vt 0.375000 0.750000
vt 0.375000 0.750000
vt 0.625000 0.750000
vt 0.375000 0.639816
vt 0.375000 0.651911
vt 0.375000 0.598089
vt 0.375000 0.610184
vt 0.857143 1.000000
vt 0.857143 1.000000
vt 0.285714 0.688023
vt 0.285714 0.688023
vt 0.375000 0.500000
vt 0.625000 0.500000
vt 0.625000 0.500000
vt 0.375000 0.500000
vt 0.547758 0.651112
vt 0.571429 0.651112
vt 0.607143 0.651112
vt 0.000000 0.000000
vt 0.375000 0.750000
vt 0.311477 0.651112
vt 0.607143 0.688023
vt 0.311477 0.688023
vt 0.000000 0.000000
vt 0.607143 0.651112
vt 0.571429 0.651112
vt 1.000000 0.500000
vt 1.000000 1.000000
vt 0.964286 1.000000
vt 0.964286 0.500000
vt 0.928571 1.000000
vt 0.928571 0.500000
vt 0.892857 1.000000
vt 0.892857 0.500000
vt 0.857143 0.500000
vt 0.821429 0.500000
vt 0.785714 0.500000
vt 0.750000 1.000000
vt 0.750000 0.500000
vt 0.714286 1.000000
vt 0.714286 0.500000
vt 0.678572 1.000000
vt 0.678572 0.500000
vt 0.642857 1.000000
vt 0.642857 0.500000
vt 0.607143 1.000000
vt 0.607143 0.500000
vt 0.571429 1.000000
vt 0.571429 0.500000
vt 0.535715 1.000000
vt 0.535715 0.500000
vt 0.500000 1.000000
vt 0.500000 0.500000
vt 0.464286 1.000000
vt 0.464286 0.500000
vt 0.428572 1.000000
vt 0.428572 0.500000
vt 0.392857 1.000000
vt 0.392857 0.500000
vt 0.357143 1.000000
vt 0.357143 0.500000
vt 0.142857 1.000000
vt 0.142857 0.500000
vt 0.107143 1.000000
vt 0.107143 0.500000
vt 0.625000 0.750000
vt 0.071429 1.000000
vt 0.071429 0.500000
vt 0.892857 1.000000
vt 0.035714 1.000000
vt 0.035714 0.500000
vt 0.000000 1.000000
vt 0.000000 0.500000
vt 0.285714 0.651112
vt 0.250000 0.651112
vt 0.214286 0.651112
vt 0.607143 0.688023
vt 0.182371 0.688023
vt 0.571429 0.688023
vt 0.535715 0.688023
vt 0.535715 0.651112
vt 0.547758 0.651112
vt 0.547758 0.688023
vt 0.509090 0.688023
vt 0.500000 0.688023
vt 0.500000 0.651112
vt 0.509089 0.651112
vt 0.571429 0.688023
vt 0.535715 0.651112
vt 0.535715 0.688023
vt 0.547758 0.688023
vt 0.509089 0.688023
vt 0.509090 0.651112
vt 0.182371 0.651112
vt 0.182371 0.688023
vt 0.607143 0.688023
vt 0.928571 1.000000
vt 0.625000 0.620403
vt 0.625000 0.500000
vt 0.625000 0.500000
vt 0.625000 0.750000
vt 0.625000 0.750000
vt 0.625000 0.629597
vt 0.625000 0.625000
vt 0.625000 0.651911
vt 0.625000 0.639816
vt 0.625000 0.750000
vt 0.625000 0.598089
vt 0.625000 0.500000
vt 0.625000 0.610184
vt 0.071429 1.000000
vt 0.107143 1.000000
vt 0.142857 1.000000
vt 0.625000 0.500000
vt 0.311477 0.688023
vt 0.625000 0.750000
vt 0.357143 1.000000
vt 0.392857 1.000000
vt 0.428572 1.000000
vt 0.464286 1.000000
vt 0.500000 1.000000
vt 0.535715 1.000000
vt 0.571429 1.000000
vt 0.607143 1.000000
vt 0.642857 1.000000
vt 0.678572 1.000000
vt 0.714286 1.000000
vt 0.750000 1.000000
vt 0.964286 1.000000
vt 1.000000 1.000000
vt 0.035714 1.000000
vt 0.571429 0.688023
vt 0.625000 0.750000
vt 0.607143 0.688023
vt 0.625000 0.500000
vt 0.571429 0.688023
vt 0.547758 0.688023
vt 0.500000 0.688023
vt 0.509089 0.688023
vt 0.535715 0.688023
vt 0.509090 0.688023
vt 0.625000 1.000000
vt 0.625000 0.250000
vt 0.535715 0.688023
vt 0.000000 1.000000
vt 0.547758 0.688023
vn 0.0000 0.0000 -1.0000
vn 0.0000 -1.0000 0.0000
vn 0.0000 0.0000 1.0000
vn 0.0000 1.0000 -0.0000
vn -1.0000 0.0000 -0.0000
vn 0.0000 -0.9745 -0.2245
vn 0.0000 -0.9856 -0.1689
vn 0.0000 0.9856 -0.1689
vn 0.0000 0.8952 -0.4456
vn 0.0000 0.9745 -0.2245
vn 0.0000 -0.6955 -0.7186
vn 0.0000 -0.7479 0.6639
vn 0.0000 -0.8952 -0.4456
vn 0.0000 -0.9960 0.0898
vn 0.0000 -0.9630 0.2697
vn 0.0000 -0.8934 0.4493
vn 0.0000 -0.7807 0.6249
vn 0.0000 -0.6175 0.7866
vn 0.0000 -0.4006 0.9163
vn -0.0000 -0.1394 0.9902
vn 0.0000 0.1394 0.9902
vn 0.0000 0.4006 0.9163
vn 0.0000 0.6175 0.7866
vn 0.0000 0.7807 0.6249
vn 0.0000 0.8934 0.4493
vn 0.0000 0.9630 0.2697
vn 0.0000 0.9960 0.0898
vn 0.0000 0.9960 -0.0898
vn 0.0000 0.9630 -0.2697
vn 0.0000 0.8934 -0.4493
vn 0.0000 0.7680 -0.6404
vn 0.0000 -0.6382 -0.7698
vn 0.0000 -0.7680 -0.6404
vn 0.0000 0.6955 -0.7186
vn 0.0000 -0.8934 -0.4493
vn 0.0000 -0.9630 -0.2697
vn 0.0000 -0.9960 -0.0898
vn 0.0000 0.6382 -0.7698
vn -1.0000 0.0000 0.0001
vn 0.0000 0.7248 0.6889
vn 0.0000 0.8655 0.5009
vn 0.0000 0.9518 0.3068
vn 0.0000 0.9948 0.1023
vn 0.0000 -0.8655 0.5009
vn 0.0000 -0.9518 0.3068
vn -0.0000 -0.9948 0.1023
vn 0.0000 0.3551 -0.9348
vn 0.0000 0.1214 -0.9926
vn 0.0000 -0.1214 -0.9926
vn 0.0000 -0.3551 -0.9348
vn 1.0000 -0.0000 0.0000
vn 1.0000 -0.0000 0.0001
usemtl None
s off
f 3/1/1 1/2/1 103/3/1 104/4/1
f 3/5/2 4/6/2 8/7/2 7/8/2
f 36/9/3 34/10/3 119/11/3 120/12/3
f 5/13/4 6/14/4 2/15/4 1/16/4
f 3/1/5 7/8/5 5/13/5 1/2/5
f 96/17/3 93/18/3 149/19/3 152/20/3
f 11/21/6 12/22/6 16/23/6 15/24/6
f 7/8/7 8/7/7 12/22/7 11/21/7
f 6/14/8 5/13/8 9/25/8 10/26/8
f 5/13/5 7/8/5 11/21/5 78/27/5 77/28/5 76/29/5 9/25/5
f 14/30/9 13/31/9 17/32/9 18/33/9
f 10/26/10 9/25/10 13/31/10 14/30/10
f 13/31/5 9/25/5 76/29/5 83/34/5 81/35/5
f 78/27/5 11/21/5 15/24/5 82/36/5 84/37/5
f 34/10/3 32/38/3 118/39/3 119/11/3
f 93/18/3 94/40/3 150/41/3 149/19/3
f 19/42/11 20/43/11 70/44/11 69/45/11
f 17/32/5 13/31/5 81/46/5 89/47/5 90/48/5 102/49/5 22/50/5
f 102/51/12 90/48/12 92/52/12 95/53/12
f 15/24/5 19/42/5 69/45/5 100/54/5 74/55/5 79/56/5 82/36/5
f 15/24/13 16/23/13 20/43/13 19/42/13
f 23/57/14 24/58/14 26/59/14 25/60/14
f 25/60/15 26/59/15 28/61/15 27/62/15
f 27/62/16 28/61/16 30/63/16 29/64/16
f 29/64/17 30/63/17 32/38/17 31/65/17
f 31/65/18 32/38/18 34/10/18 33/66/18
f 33/66/19 34/10/19 36/9/19 35/67/19
f 35/67/20 36/9/20 38/68/20 37/69/20
f 37/69/21 38/68/21 40/70/21 39/71/21
f 39/71/22 40/70/22 42/72/22 41/73/22
f 41/73/23 42/72/23 44/74/23 43/75/23
f 43/75/24 44/74/24 46/76/24 45/77/24
f 45/77/25 46/76/25 48/78/25 47/79/25
f 47/79/26 48/78/26 50/80/26 49/81/26
f 49/81/27 50/80/27 52/82/27 51/83/27
f 51/83/28 52/82/28 54/84/28 53/85/28
f 53/85/29 54/84/29 56/86/29 55/87/29
f 55/87/30 56/86/30 58/88/30 57/89/30
f 57/89/31 58/88/31 60/90/31 59/91/31
f 70/44/32 62/92/32 61/93/32 69/45/32
f 61/93/33 62/92/33 64/94/33 63/95/33
f 18/33/34 17/32/34 22/50/34 21/96/34
f 63/95/35 64/94/35 66/97/35 65/98/35
f 32/38/3 30/63/3 117/99/3 118/39/3
f 65/98/36 66/97/36 68/100/36 67/101/36
f 67/101/37 68/100/37 24/102/37 23/103/37
f 22/50/38 59/91/38 60/90/38 21/96/38
f 23/103/39 25/60/39 27/62/39 29/64/39 31/65/39 33/66/39 35/67/39 37/69/39 39/71/39 41/73/39 43/75/39 45/77/39 47/79/39 49/81/39 51/83/39 53/85/39 55/87/39 57/89/39 59/91/39 22/50/39 102/51/39 101/104/39 98/105/39 99/106/39 100/54/39 69/45/39 61/93/39 63/95/39 65/98/39 67/101/39
f 75/107/40 74/55/40 100/54/40 97/108/40
f 74/55/41 75/107/41 80/109/41 79/56/41
f 86/110/42 84/111/42 82/112/42 79/56/42 80/109/42 85/113/42
f 73/114/43 71/115/43 77/116/43 78/117/43 84/111/43 86/110/43
f 92/52/44 90/48/44 89/47/44 91/118/44
f 91/118/45 89/47/45 81/46/45 83/119/45 88/120/45 87/121/45
f 77/116/46 71/115/46 72/122/46 88/120/46 83/119/46 76/123/46
f 95/53/47 94/40/47 101/104/47 102/51/47
f 94/40/48 93/18/48 98/105/48 101/104/48
f 93/18/49 96/17/49 99/106/49 98/105/49
f 96/17/50 97/108/50 100/124/50 99/106/50
f 75/107/3 97/108/3 153/125/3 141/126/3
f 30/63/3 28/61/3 116/127/3 117/99/3
f 140/128/51 108/129/51 106/130/51 105/131/51 107/132/51 139/133/51 138/134/51
f 106/130/51 104/4/51 103/3/51 105/131/51
f 145/135/51 146/136/51 139/133/51 107/132/51 109/137/51
f 143/138/51 110/139/51 108/129/51 140/128/51 144/140/51
f 135/141/52 134/142/52 133/143/52 137/144/52 153/125/52 152/20/52 149/19/52 150/41/52 151/145/52 113/146/52 132/147/52 131/148/52 130/149/52 129/150/52 128/151/52 127/152/52 126/153/52 125/154/52 124/155/52 123/156/52 122/157/52 121/158/52 120/12/52 119/11/52 118/39/52 117/99/52 116/127/52 115/159/52 114/160/52 136/161/52
f 147/162/51 145/135/51 109/137/51 111/163/51 113/146/51 151/145/51 148/164/51
f 153/125/51 137/144/51 112/165/51 110/139/51 143/138/51 142/166/51 141/126/51
f 85/113/3 80/109/3 142/166/3 143/167/3
f 38/68/3 36/9/3 120/12/3 121/158/3
f 40/70/3 38/68/3 121/158/3 122/157/3
f 42/72/3 40/70/3 122/157/3 123/156/3
f 44/74/3 42/72/3 123/156/3 124/155/3
f 72/122/3 71/115/3 138/168/3 139/169/3
f 88/120/3 72/122/3 139/169/3 146/170/3
f 46/76/3 44/74/3 124/155/3 125/154/3
f 71/115/3 73/114/3 140/171/3 138/168/3
f 95/53/3 92/52/3 148/164/3 151/145/3
f 48/78/3 46/76/3 125/154/3 126/153/3
f 92/52/3 91/118/3 147/162/3 148/164/3
f 50/80/3 48/78/3 126/153/3 127/152/3
f 62/92/3 70/44/3 137/144/3 133/143/3
f 94/40/3 95/53/3 151/145/3 150/41/3
f 52/82/3 50/80/3 127/152/3 128/151/3
f 80/109/3 75/107/3 141/126/3 142/166/3
f 97/108/3 96/17/3 152/20/3 153/125/3
f 54/84/3 52/82/3 128/151/3 129/150/3
f 56/86/3 54/84/3 129/150/3 130/149/3
f 2/15/3 6/14/3 105/131/3 103/172/3
f 58/88/3 56/86/3 130/149/3 131/148/3
f 8/7/3 4/6/3 104/173/3 106/130/3
f 6/14/3 10/26/3 107/132/3 105/131/3
f 60/90/3 58/88/3 131/148/3 132/147/3
f 64/94/3 62/92/3 133/143/3 134/142/3
f 12/22/3 8/7/3 106/130/3 108/129/3
f 73/114/3 86/110/3 144/174/3 140/171/3
f 66/97/3 64/94/3 134/142/3 135/141/3
f 10/26/3 14/30/3 109/137/3 107/132/3
f 21/96/3 60/90/3 132/147/3 113/146/3
f 24/102/3 68/100/3 136/161/3 114/175/3
f 16/23/3 12/22/3 108/129/3 110/139/3
f 86/110/3 85/113/3 143/167/3 144/174/3
f 70/44/3 20/43/3 112/165/3 137/144/3
f 14/30/3 18/33/3 111/163/3 109/137/3
f 68/100/3 66/97/3 135/141/3 136/161/3
f 20/43/3 16/23/3 110/139/3 112/165/3
f 87/121/3 88/120/3 146/170/3 145/176/3
f 18/33/3 21/96/3 113/146/3 111/163/3
f 26/59/3 24/58/3 114/160/3 115/159/3
f 28/61/3 26/59/3 115/159/3 116/127/3
f 91/118/3 87/121/3 145/176/3 147/162/3
